<mxfile host="app.diagrams.net" modified="2021-05-13T14:06:28.327Z" agent="5.0 (Windows NT 10.0; Win64; x64) AppleWebKit/537.36 (KHTML, like Gecko) Chrome/90.0.4430.93 Safari/537.36" etag="VF1bK2wS--45eGyigKgw" version="14.6.12" type="github">
  <diagram id="TpnWWGsobnSOPPf37Vti" name="Page-1">
    <mxGraphModel dx="865" dy="1657" grid="1" gridSize="10" guides="1" tooltips="1" connect="1" arrows="1" fold="1" page="1" pageScale="1" pageWidth="827" pageHeight="1169" math="0" shadow="0">
      <root>
        <mxCell id="0" />
        <mxCell id="1" parent="0" />
        <mxCell id="WfCiH9uja1bu1JMDa3OI-16" value="" style="edgeStyle=none;rounded=0;orthogonalLoop=1;jettySize=auto;html=1;" edge="1" parent="1" source="WfCiH9uja1bu1JMDa3OI-1" target="WfCiH9uja1bu1JMDa3OI-15">
          <mxGeometry relative="1" as="geometry" />
        </mxCell>
        <mxCell id="WfCiH9uja1bu1JMDa3OI-23" value="1" style="edgeLabel;html=1;align=center;verticalAlign=middle;resizable=0;points=[];" vertex="1" connectable="0" parent="WfCiH9uja1bu1JMDa3OI-16">
          <mxGeometry x="0.2844" y="-1" relative="1" as="geometry">
            <mxPoint as="offset" />
          </mxGeometry>
        </mxCell>
        <mxCell id="WfCiH9uja1bu1JMDa3OI-1" value="用户" style="rounded=0;whiteSpace=wrap;html=1;" vertex="1" parent="1">
          <mxGeometry x="110" y="120" width="120" height="60" as="geometry" />
        </mxCell>
        <mxCell id="WfCiH9uja1bu1JMDa3OI-2" value="队伍" style="rounded=0;whiteSpace=wrap;html=1;" vertex="1" parent="1">
          <mxGeometry x="500" y="120" width="120" height="60" as="geometry" />
        </mxCell>
        <mxCell id="WfCiH9uja1bu1JMDa3OI-3" value="" style="endArrow=none;html=1;entryX=0;entryY=0.5;entryDx=0;entryDy=0;" edge="1" parent="1" target="WfCiH9uja1bu1JMDa3OI-4">
          <mxGeometry width="50" height="50" relative="1" as="geometry">
            <mxPoint x="231" y="120" as="sourcePoint" />
            <mxPoint x="290" y="150" as="targetPoint" />
          </mxGeometry>
        </mxCell>
        <mxCell id="WfCiH9uja1bu1JMDa3OI-25" value="n" style="edgeLabel;html=1;align=center;verticalAlign=middle;resizable=0;points=[];" vertex="1" connectable="0" parent="WfCiH9uja1bu1JMDa3OI-3">
          <mxGeometry x="0.1525" y="1" relative="1" as="geometry">
            <mxPoint as="offset" />
          </mxGeometry>
        </mxCell>
        <mxCell id="WfCiH9uja1bu1JMDa3OI-4" value="组成" style="rhombus;whiteSpace=wrap;html=1;" vertex="1" parent="1">
          <mxGeometry x="325" y="-10" width="80" height="80" as="geometry" />
        </mxCell>
        <mxCell id="WfCiH9uja1bu1JMDa3OI-7" value="" style="endArrow=none;html=1;entryX=0;entryY=0;entryDx=0;entryDy=0;exitX=1;exitY=0.5;exitDx=0;exitDy=0;" edge="1" parent="1" source="WfCiH9uja1bu1JMDa3OI-4" target="WfCiH9uja1bu1JMDa3OI-2">
          <mxGeometry width="50" height="50" relative="1" as="geometry">
            <mxPoint x="390" y="320" as="sourcePoint" />
            <mxPoint x="440" y="270" as="targetPoint" />
          </mxGeometry>
        </mxCell>
        <mxCell id="WfCiH9uja1bu1JMDa3OI-26" value="m" style="edgeLabel;html=1;align=center;verticalAlign=middle;resizable=0;points=[];" vertex="1" connectable="0" parent="WfCiH9uja1bu1JMDa3OI-7">
          <mxGeometry x="-0.1869" y="1" relative="1" as="geometry">
            <mxPoint as="offset" />
          </mxGeometry>
        </mxCell>
        <mxCell id="WfCiH9uja1bu1JMDa3OI-9" value="评论" style="rhombus;whiteSpace=wrap;html=1;" vertex="1" parent="1">
          <mxGeometry x="320" y="230" width="85" height="80" as="geometry" />
        </mxCell>
        <mxCell id="WfCiH9uja1bu1JMDa3OI-13" value="" style="endArrow=none;html=1;entryX=1;entryY=1;entryDx=0;entryDy=0;exitX=0;exitY=0.5;exitDx=0;exitDy=0;" edge="1" parent="1" source="WfCiH9uja1bu1JMDa3OI-9" target="WfCiH9uja1bu1JMDa3OI-1">
          <mxGeometry width="50" height="50" relative="1" as="geometry">
            <mxPoint x="390" y="320" as="sourcePoint" />
            <mxPoint x="440" y="270" as="targetPoint" />
          </mxGeometry>
        </mxCell>
        <mxCell id="WfCiH9uja1bu1JMDa3OI-29" value="n" style="edgeLabel;html=1;align=center;verticalAlign=middle;resizable=0;points=[];" vertex="1" connectable="0" parent="WfCiH9uja1bu1JMDa3OI-13">
          <mxGeometry x="0.2454" y="-1" relative="1" as="geometry">
            <mxPoint x="15" y="17" as="offset" />
          </mxGeometry>
        </mxCell>
        <mxCell id="WfCiH9uja1bu1JMDa3OI-14" value="" style="endArrow=none;html=1;entryX=0;entryY=1;entryDx=0;entryDy=0;exitX=1;exitY=0.5;exitDx=0;exitDy=0;" edge="1" parent="1" source="WfCiH9uja1bu1JMDa3OI-9" target="WfCiH9uja1bu1JMDa3OI-2">
          <mxGeometry width="50" height="50" relative="1" as="geometry">
            <mxPoint x="385" y="260" as="sourcePoint" />
            <mxPoint x="440" y="270" as="targetPoint" />
          </mxGeometry>
        </mxCell>
        <mxCell id="WfCiH9uja1bu1JMDa3OI-30" value="m" style="edgeLabel;html=1;align=center;verticalAlign=middle;resizable=0;points=[];" vertex="1" connectable="0" parent="WfCiH9uja1bu1JMDa3OI-14">
          <mxGeometry x="0.1522" relative="1" as="geometry">
            <mxPoint x="-9" y="12" as="offset" />
          </mxGeometry>
        </mxCell>
        <mxCell id="WfCiH9uja1bu1JMDa3OI-17" value="" style="edgeStyle=none;rounded=0;orthogonalLoop=1;jettySize=auto;html=1;" edge="1" parent="1" source="WfCiH9uja1bu1JMDa3OI-15" target="WfCiH9uja1bu1JMDa3OI-2">
          <mxGeometry relative="1" as="geometry" />
        </mxCell>
        <mxCell id="WfCiH9uja1bu1JMDa3OI-24" value="n" style="edgeLabel;html=1;align=center;verticalAlign=middle;resizable=0;points=[];" vertex="1" connectable="0" parent="WfCiH9uja1bu1JMDa3OI-17">
          <mxGeometry x="0.216" y="2" relative="1" as="geometry">
            <mxPoint as="offset" />
          </mxGeometry>
        </mxCell>
        <mxCell id="WfCiH9uja1bu1JMDa3OI-15" value="创建" style="rhombus;whiteSpace=wrap;html=1;" vertex="1" parent="1">
          <mxGeometry x="325" y="110" width="80" height="80" as="geometry" />
        </mxCell>
        <mxCell id="WfCiH9uja1bu1JMDa3OI-19" value="评论" style="rhombus;whiteSpace=wrap;html=1;" vertex="1" parent="1">
          <mxGeometry x="140" y="260" width="60" height="80" as="geometry" />
        </mxCell>
        <mxCell id="WfCiH9uja1bu1JMDa3OI-20" value="" style="endArrow=none;html=1;entryX=0;entryY=0.5;entryDx=0;entryDy=0;" edge="1" parent="1" target="WfCiH9uja1bu1JMDa3OI-19">
          <mxGeometry width="50" height="50" relative="1" as="geometry">
            <mxPoint x="140" y="182" as="sourcePoint" />
            <mxPoint x="440" y="170" as="targetPoint" />
          </mxGeometry>
        </mxCell>
        <mxCell id="WfCiH9uja1bu1JMDa3OI-27" value="n" style="edgeLabel;html=1;align=center;verticalAlign=middle;resizable=0;points=[];" vertex="1" connectable="0" parent="WfCiH9uja1bu1JMDa3OI-20">
          <mxGeometry x="-0.377" y="2" relative="1" as="geometry">
            <mxPoint as="offset" />
          </mxGeometry>
        </mxCell>
        <mxCell id="WfCiH9uja1bu1JMDa3OI-21" value="" style="endArrow=none;html=1;exitX=1;exitY=0.5;exitDx=0;exitDy=0;entryX=0.75;entryY=1;entryDx=0;entryDy=0;" edge="1" parent="1" source="WfCiH9uja1bu1JMDa3OI-19" target="WfCiH9uja1bu1JMDa3OI-1">
          <mxGeometry width="50" height="50" relative="1" as="geometry">
            <mxPoint x="390" y="220" as="sourcePoint" />
            <mxPoint x="440" y="170" as="targetPoint" />
          </mxGeometry>
        </mxCell>
        <mxCell id="WfCiH9uja1bu1JMDa3OI-28" value="m" style="edgeLabel;html=1;align=center;verticalAlign=middle;resizable=0;points=[];" vertex="1" connectable="0" parent="WfCiH9uja1bu1JMDa3OI-21">
          <mxGeometry x="0.3425" relative="1" as="geometry">
            <mxPoint as="offset" />
          </mxGeometry>
        </mxCell>
        <mxCell id="WfCiH9uja1bu1JMDa3OI-45" value="" style="edgeStyle=none;rounded=0;orthogonalLoop=1;jettySize=auto;html=1;" edge="1" parent="1" source="WfCiH9uja1bu1JMDa3OI-33" target="WfCiH9uja1bu1JMDa3OI-1">
          <mxGeometry relative="1" as="geometry" />
        </mxCell>
        <mxCell id="WfCiH9uja1bu1JMDa3OI-50" value="n" style="edgeLabel;html=1;align=center;verticalAlign=middle;resizable=0;points=[];" vertex="1" connectable="0" parent="WfCiH9uja1bu1JMDa3OI-45">
          <mxGeometry x="-0.4583" relative="1" as="geometry">
            <mxPoint as="offset" />
          </mxGeometry>
        </mxCell>
        <mxCell id="WfCiH9uja1bu1JMDa3OI-33" value="拥有" style="rhombus;whiteSpace=wrap;html=1;rounded=0;" vertex="1" parent="1">
          <mxGeometry x="130" width="80" height="80" as="geometry" />
        </mxCell>
        <mxCell id="WfCiH9uja1bu1JMDa3OI-44" value="" style="edgeStyle=none;rounded=0;orthogonalLoop=1;jettySize=auto;html=1;" edge="1" parent="1" source="WfCiH9uja1bu1JMDa3OI-35" target="WfCiH9uja1bu1JMDa3OI-33">
          <mxGeometry relative="1" as="geometry" />
        </mxCell>
        <mxCell id="WfCiH9uja1bu1JMDa3OI-49" value="1" style="edgeLabel;html=1;align=center;verticalAlign=middle;resizable=0;points=[];" vertex="1" connectable="0" parent="WfCiH9uja1bu1JMDa3OI-44">
          <mxGeometry x="0.2778" y="1" relative="1" as="geometry">
            <mxPoint x="-1" y="-18" as="offset" />
          </mxGeometry>
        </mxCell>
        <mxCell id="WfCiH9uja1bu1JMDa3OI-35" value="用户类别" style="whiteSpace=wrap;html=1;rounded=0;" vertex="1" parent="1">
          <mxGeometry x="110" y="-120" width="120" height="60" as="geometry" />
        </mxCell>
        <mxCell id="WfCiH9uja1bu1JMDa3OI-48" value="" style="edgeStyle=none;rounded=0;orthogonalLoop=1;jettySize=auto;html=1;" edge="1" parent="1" source="WfCiH9uja1bu1JMDa3OI-40" target="WfCiH9uja1bu1JMDa3OI-2">
          <mxGeometry relative="1" as="geometry" />
        </mxCell>
        <mxCell id="WfCiH9uja1bu1JMDa3OI-52" value="m" style="edgeLabel;html=1;align=center;verticalAlign=middle;resizable=0;points=[];" vertex="1" connectable="0" parent="WfCiH9uja1bu1JMDa3OI-48">
          <mxGeometry x="-0.5417" relative="1" as="geometry">
            <mxPoint as="offset" />
          </mxGeometry>
        </mxCell>
        <mxCell id="WfCiH9uja1bu1JMDa3OI-40" value="拥有" style="rhombus;whiteSpace=wrap;html=1;rounded=0;" vertex="1" parent="1">
          <mxGeometry x="520" width="80" height="80" as="geometry" />
        </mxCell>
        <mxCell id="WfCiH9uja1bu1JMDa3OI-47" value="" style="edgeStyle=none;rounded=0;orthogonalLoop=1;jettySize=auto;html=1;" edge="1" parent="1" source="WfCiH9uja1bu1JMDa3OI-42" target="WfCiH9uja1bu1JMDa3OI-40">
          <mxGeometry relative="1" as="geometry" />
        </mxCell>
        <mxCell id="WfCiH9uja1bu1JMDa3OI-51" value="1" style="edgeLabel;html=1;align=center;verticalAlign=middle;resizable=0;points=[];" vertex="1" connectable="0" parent="WfCiH9uja1bu1JMDa3OI-47">
          <mxGeometry x="-0.3056" relative="1" as="geometry">
            <mxPoint as="offset" />
          </mxGeometry>
        </mxCell>
        <mxCell id="WfCiH9uja1bu1JMDa3OI-42" value="比赛类别" style="whiteSpace=wrap;html=1;rounded=0;" vertex="1" parent="1">
          <mxGeometry x="500" y="-120" width="120" height="60" as="geometry" />
        </mxCell>
        <mxCell id="WfCiH9uja1bu1JMDa3OI-53" value="获得" style="rhombus;whiteSpace=wrap;html=1;rounded=0;" vertex="1" parent="1">
          <mxGeometry x="520" y="210" width="80" height="50" as="geometry" />
        </mxCell>
        <mxCell id="WfCiH9uja1bu1JMDa3OI-55" value="奖项" style="whiteSpace=wrap;html=1;rounded=0;" vertex="1" parent="1">
          <mxGeometry x="500" y="280" width="120" height="60" as="geometry" />
        </mxCell>
        <mxCell id="WfCiH9uja1bu1JMDa3OI-57" value="" style="endArrow=none;html=1;entryX=0.5;entryY=1;entryDx=0;entryDy=0;exitX=0.5;exitY=0;exitDx=0;exitDy=0;" edge="1" parent="1" source="WfCiH9uja1bu1JMDa3OI-53" target="WfCiH9uja1bu1JMDa3OI-2">
          <mxGeometry width="50" height="50" relative="1" as="geometry">
            <mxPoint x="310" y="230" as="sourcePoint" />
            <mxPoint x="360" y="180" as="targetPoint" />
          </mxGeometry>
        </mxCell>
        <mxCell id="WfCiH9uja1bu1JMDa3OI-59" value="n" style="edgeLabel;html=1;align=center;verticalAlign=middle;resizable=0;points=[];" vertex="1" connectable="0" parent="WfCiH9uja1bu1JMDa3OI-57">
          <mxGeometry x="0.3267" y="2" relative="1" as="geometry">
            <mxPoint x="2" y="10" as="offset" />
          </mxGeometry>
        </mxCell>
        <mxCell id="WfCiH9uja1bu1JMDa3OI-58" value="" style="endArrow=none;html=1;exitX=0.5;exitY=0;exitDx=0;exitDy=0;entryX=0.5;entryY=1;entryDx=0;entryDy=0;" edge="1" parent="1" source="WfCiH9uja1bu1JMDa3OI-55" target="WfCiH9uja1bu1JMDa3OI-53">
          <mxGeometry width="50" height="50" relative="1" as="geometry">
            <mxPoint x="310" y="230" as="sourcePoint" />
            <mxPoint x="360" y="180" as="targetPoint" />
          </mxGeometry>
        </mxCell>
        <mxCell id="WfCiH9uja1bu1JMDa3OI-60" value="m" style="edgeLabel;html=1;align=center;verticalAlign=middle;resizable=0;points=[];" vertex="1" connectable="0" parent="WfCiH9uja1bu1JMDa3OI-58">
          <mxGeometry x="0.2333" y="2" relative="1" as="geometry">
            <mxPoint x="2" y="3" as="offset" />
          </mxGeometry>
        </mxCell>
      </root>
    </mxGraphModel>
  </diagram>
</mxfile>
